<?xml version="1.0" encoding="UTF-8" standalone="no"?>
<!-- Created with Inkscape (http://www.inkscape.org/) -->

<svg
   width="104.05109mm"
   height="64.88131mm"
   viewBox="0 0 368.68495 229.89441"
   id="svg4321"
   version="1.1"
   inkscape:version="1.4 (e7c3feb100, 2024-10-09)"
   sodipodi:docname="tablet-eraser-button.svg"
   xmlns:inkscape="http://www.inkscape.org/namespaces/inkscape"
   xmlns:sodipodi="http://sodipodi.sourceforge.net/DTD/sodipodi-0.dtd"
   xmlns:xlink="http://www.w3.org/1999/xlink"
   xmlns="http://www.w3.org/2000/svg"
   xmlns:svg="http://www.w3.org/2000/svg"
   xmlns:rdf="http://www.w3.org/1999/02/22-rdf-syntax-ns#"
   xmlns:cc="http://creativecommons.org/ns#"
   xmlns:dc="http://purl.org/dc/elements/1.1/">
  <defs
     id="defs4323">
    <linearGradient
       inkscape:collect="always"
       xlink:href="#linearGradient4294"
       id="linearGradient4300"
       x1="465.81339"
       y1="666.13727"
       x2="454.82117"
       y2="658.65521"
       gradientUnits="userSpaceOnUse" />
    <linearGradient
       inkscape:collect="always"
       id="linearGradient4294">
      <stop
         style="stop-color:#1a1a1a;stop-opacity:1;"
         offset="0"
         id="stop4296" />
      <stop
         style="stop-color:#808080;stop-opacity:1"
         offset="1"
         id="stop4298" />
    </linearGradient>
    <linearGradient
       inkscape:collect="always"
       xlink:href="#linearGradient4294"
       id="linearGradient3"
       gradientUnits="userSpaceOnUse"
       x1="465.81339"
       y1="666.13727"
       x2="454.82117"
       y2="658.65521" />
  </defs>
  <sodipodi:namedview
     id="base"
     pagecolor="#ffffff"
     bordercolor="#666666"
     borderopacity="1.0"
     inkscape:pageopacity="0.0"
     inkscape:pageshadow="2"
     inkscape:zoom="2.8"
     inkscape:cx="330.71429"
     inkscape:cy="144.28571"
     inkscape:document-units="px"
     inkscape:current-layer="layer1"
     showgrid="false"
     inkscape:window-width="3072"
     inkscape:window-height="1659"
     inkscape:window-x="0"
     inkscape:window-y="0"
     inkscape:window-maximized="1"
     fit-margin-top="0"
     fit-margin-left="0"
     fit-margin-right="0"
     fit-margin-bottom="0"
     inkscape:showpageshadow="2"
     inkscape:pagecheckerboard="0"
     inkscape:deskcolor="#d1d1d1" />
  <metadata
     id="metadata4326">
    <rdf:RDF>
      <cc:Work
         rdf:about="">
        <dc:format>image/svg+xml</dc:format>
        <dc:type
           rdf:resource="http://purl.org/dc/dcmitype/StillImage" />
      </cc:Work>
    </rdf:RDF>
  </metadata>
  <g
     inkscape:label="Layer 1"
     inkscape:groupmode="layer"
     id="layer1"
     transform="translate(-67.741956,-463.35919)">
    <g
       transform="matrix(0.35596319,-0.1450925,0.14027908,0.34415419,-98.897559,452.82709)"
       id="g4304"
       style="display:inline">
      <path
         style="display:inline;fill:#cccccc;fill-rule:evenodd;stroke:none;stroke-width:1px;stroke-linecap:butt;stroke-linejoin:miter;stroke-opacity:1"
         d="m 387.83544,799.76093 c -1.1128,3.61694 -3.2211,13.05163 -1.08543,14.07769 2.13567,1.02606 7.81039,-3.72162 10.99756,-6.69095 z"
         id="path4286"
         inkscape:connector-curvature="0"
         sodipodi:nodetypes="czcc" />
      <path
         style="display:inline;fill:#000000"
         d="m 392.64431,804.79039 c -8.52094,-5.90399 -8.49394,-11.01546 0.22879,-43.30647 1.03999,-3.85 2.46829,-9.67602 3.17399,-12.9467 0.99731,-4.62219 2.39455,-7.29497 6.27321,-12 2.74456,-3.32932 5.25157,-6.2783 5.57113,-6.5533 40.78433,-60.97488 80.48307,-125.1652 118.27253,-184 9.86283,-15.675 26.59424,-42.225 37.18089,-59 10.58666,-16.775 34.01422,-53.9 52.06125,-82.5 18.04703,-28.6 35.04505,-55.31677 37.77338,-59.37059 l 4.9606,-7.3706 4.1828,0.57332 c 4.16371,0.5707 4.19706,0.54958 7.30887,-4.62941 3.75631,-6.2516 8.82067,-11.57582 12.2516,-12.88026 5.99391,-2.27888 14.03303,2.9506 14.03303,9.12854 0,3.90203 -2.51704,10.62127 -6.02878,16.09385 -1.63417,2.54664 -2.97122,4.85949 -2.97122,5.13969 0,0.28019 0.9,1.54715 2,2.81546 2.28453,2.63408 2.47267,4.21918 0.86833,7.31574 -1.28218,2.47476 -26.61383,45.18798 -55.85724,94.18426 -10.83283,18.15 -25.72943,43.1137 -33.10357,55.47489 -7.37413,12.3612 -13.69273,23.17153 -14.04131,24.02297 -0.34859,0.85144 -7.50972,12.78774 -15.91363,26.52511 -15.54138,25.40455 -32.24417,52.9052 -70.74345,116.47703 -40.26028,66.47968 -43.66308,72.46026 -49.21634,86.5 -1.74036,4.4 -3.92035,8.675 -4.8444,9.5 -0.92405,0.825 -4.36246,3.75 -7.6409,6.5 -3.27845,2.75 -9.57132,8.3067 -13.98415,12.34823 -10.62726,9.73304 -16.99729,13.87361 -22.52334,14.64034 -3.99187,0.55386 -5.03885,0.251 -9.27207,-2.6821 z"
         id="path4283"
         inkscape:connector-curvature="0"
         sodipodi:nodetypes="ssssccssscsssssssssssssssssss" />
      <path
         style="fill:url(#linearGradient4300);fill-opacity:1;fill-rule:evenodd;stroke:none;stroke-width:1px;stroke-linecap:butt;stroke-linejoin:miter;stroke-opacity:1"
         d="m 450.89044,688.88586 c 8.71518,5.62513 45.74035,-59.18436 43.57923,-75.43494 l -7.07107,-6.56599 c -29.93081,25.86352 -47.78438,74.72281 -47.78438,74.72281 z"
         id="path4292"
         inkscape:connector-curvature="0"
         sodipodi:nodetypes="scccs" />
    </g>
    <rect
       transform="scale(1,-1)"
       y="-693.18524"
       x="67.81031"
       height="16.036251"
       width="168.54825"
       id="rect4136"
       style="fill:#4d4d4d;fill-opacity:1;stroke:#4d4d4d;stroke-width:0.136709;stroke-linecap:round;stroke-miterlimit:4;stroke-dasharray:0.546834, 0.136709;stroke-dashoffset:0;stroke-opacity:1" />
    <rect
       transform="scale(1,-1)"
       y="-693.18524"
       x="267.8103"
       height="16.036251"
       width="168.54825"
       id="rect5709"
       style="opacity:1;fill:#4d4d4d;fill-opacity:1;stroke:#4d4d4d;stroke-width:0.136709;stroke-linecap:round;stroke-miterlimit:4;stroke-dasharray:0.546834, 0.136709;stroke-dashoffset:0;stroke-opacity:1" />
    <text
       id="text5713"
       y="559.10828"
       x="296.20877"
       style="font-style:normal;font-weight:normal;line-height:0%;font-family:sans-serif;letter-spacing:0px;word-spacing:0px;fill:#000000;fill-opacity:1;stroke:none;stroke-width:1px;stroke-linecap:butt;stroke-linejoin:miter;stroke-opacity:1"
       xml:space="preserve"><tspan
         y="559.10828"
         x="296.20877"
         id="tspan5715"
         sodipodi:role="line"
         style="font-size:15px;line-height:1.25;font-family:sans-serif">Eraser</tspan></text>
    <text
       id="text1"
       y="559.10828"
       x="109.0436"
       style="font-style:normal;font-weight:normal;line-height:0%;font-family:sans-serif;letter-spacing:0px;word-spacing:0px;fill:#000000;fill-opacity:1;stroke:none;stroke-width:1px;stroke-linecap:butt;stroke-linejoin:miter;stroke-opacity:1"
       xml:space="preserve"><tspan
         y="559.10828"
         x="109.0436"
         id="tspan1"
         sodipodi:role="line"
         style="font-size:15px;line-height:1.25;font-family:sans-serif">Pen</tspan></text>
    <g
       transform="matrix(0.35596319,-0.1450925,0.14027908,0.34415419,117.39708,452.82709)"
       id="g3"
       style="display:inline">
      <path
         style="display:inline;fill:#cccccc;fill-rule:evenodd;stroke:none;stroke-width:1px;stroke-linecap:butt;stroke-linejoin:miter;stroke-opacity:1"
         d="m 387.83544,799.76093 c -1.1128,3.61694 -3.2211,13.05163 -1.08543,14.07769 2.13567,1.02606 7.81039,-3.72162 10.99756,-6.69095 z"
         id="path1"
         inkscape:connector-curvature="0"
         sodipodi:nodetypes="czcc" />
      <path
         style="display:inline;fill:#000000"
         d="m 392.64431,804.79039 c -8.52094,-5.90399 -8.49394,-11.01546 0.22879,-43.30647 1.03999,-3.85 2.46829,-9.67602 3.17399,-12.9467 0.99731,-4.62219 2.39455,-7.29497 6.27321,-12 2.74456,-3.32932 5.25157,-6.2783 5.57113,-6.5533 40.78433,-60.97488 80.48307,-125.1652 118.27253,-184 9.86283,-15.675 26.59424,-42.225 37.18089,-59 10.58666,-16.775 34.01422,-53.9 52.06125,-82.5 18.04703,-28.6 35.04505,-55.31677 37.77338,-59.37059 l 4.9606,-7.3706 4.1828,0.57332 c 4.16371,0.5707 4.19706,0.54958 7.30887,-4.62941 3.75631,-6.2516 8.82067,-11.57582 12.2516,-12.88026 5.99391,-2.27888 14.03303,2.9506 14.03303,9.12854 0,3.90203 -2.51704,10.62127 -6.02878,16.09385 -1.63417,2.54664 -2.97122,4.85949 -2.97122,5.13969 0,0.28019 0.9,1.54715 2,2.81546 2.28453,2.63408 2.47267,4.21918 0.86833,7.31574 -1.28218,2.47476 -26.61383,45.18798 -55.85724,94.18426 -10.83283,18.15 -25.72943,43.1137 -33.10357,55.47489 -7.37413,12.3612 -13.69273,23.17153 -14.04131,24.02297 -0.34859,0.85144 -7.50972,12.78774 -15.91363,26.52511 -15.54138,25.40455 -32.24417,52.9052 -70.74345,116.47703 -40.26028,66.47968 -43.66308,72.46026 -49.21634,86.5 -1.74036,4.4 -3.92035,8.675 -4.8444,9.5 -0.92405,0.825 -4.36246,3.75 -7.6409,6.5 -3.27845,2.75 -9.57132,8.3067 -13.98415,12.34823 -10.62726,9.73304 -16.99729,13.87361 -22.52334,14.64034 -3.99187,0.55386 -5.03885,0.251 -9.27207,-2.6821 z"
         id="path2"
         inkscape:connector-curvature="0"
         sodipodi:nodetypes="ssssccssscsssssssssssssssssss" />
      <path
         style="fill:url(#linearGradient3);fill-opacity:1;fill-rule:evenodd;stroke:none;stroke-width:1px;stroke-linecap:butt;stroke-linejoin:miter;stroke-opacity:1"
         d="m 450.89044,688.88586 c 8.71518,5.62513 45.74035,-59.18436 43.57923,-75.43494 l -7.07107,-6.56599 c -29.93081,25.86352 -47.78438,74.72281 -47.78438,74.72281 z"
         id="path3"
         inkscape:connector-curvature="0"
         sodipodi:nodetypes="scccs" />
    </g>
    <g
       transform="matrix(-0.21797128,-0.07136846,0.05329769,-0.25512499,403.9107,823.07273)"
       id="g3663-9-8">
      <path
         d="m 388.57143,893.79076 -57.14285,-130 c 0,0 -30.0247,-58.84827 4.28571,-70.00001 27.07438,-8.79984 37.32196,9.59496 40,14.64286 27.54455,51.91936 84.64285,173.21429 84.64285,173.21429 h -0.71428 z"
         id="path2820-6-7"
         style="fill:none;stroke:#000000;stroke-width:1px;stroke-linecap:butt;stroke-linejoin:miter;stroke-opacity:1"
         inkscape:connector-curvature="0" />
      <path
         d="m 360.32021,827.78041 c -15.74169,-35.7991 -29.44655,-66.92657 -30.45523,-69.17214 -7.08929,-15.78239 -10.8761,-32.88254 -9.6176,-43.43026 1.39575,-11.69796 7.19746,-18.50389 18.22574,-21.38044 5.18218,-1.35169 8.54724,-1.76827 12.41155,-1.53649 4.43642,0.26609 6.95929,0.93715 11.03011,2.93391 3.93491,1.9301 8.0085,5.56248 10.68932,9.53159 3.68818,5.46055 26.56068,50.9623 49.57778,98.62829 16.60192,34.38082 37.06388,77.41994 36.89013,77.59369 -0.13286,0.13286 -69.01932,11.92114 -69.66286,11.92114 -0.27909,0 -12.00972,-26.24842 -29.08894,-65.08929 z"
         id="path2824-1-6"
         style="color:#000000;display:inline;overflow:visible;visibility:visible;fill:#ffccaa;fill-opacity:1;fill-rule:nonzero;stroke:#000000;stroke-width:0.002;stroke-miterlimit:4;stroke-dasharray:none;stroke-opacity:1;marker:none;enable-background:accumulate"
         inkscape:connector-curvature="0" />
      <path
         d="m 334.75785,756.75053 c -7.08929,-15.78239 -10.28437,-26.89033 -9.02587,-37.43805 1.39575,-11.69796 5.8085,-16.73613 16.83678,-19.61268 12.44766,-3.59459 20.03902,-1.91353 27.39013,8.75815 11.42622,25.66382 13.40166,29.05484 15.06365,35.48866 -0.13286,0.13286 -42.89663,15.49027 -44.57776,16.18518 -1.72922,0.71479 -4.94789,-2.09377 -5.68693,-3.38126 z"
         id="path2824-7-1-7"
         style="color:#000000;display:inline;overflow:visible;visibility:visible;opacity:0.92;fill:#ffe6d5;fill-opacity:1;fill-rule:nonzero;stroke:none;stroke-width:0.2;marker:none;enable-background:accumulate"
         inkscape:connector-curvature="0" />
    </g>
  </g>
</svg>
